<?xml version="1.0"?>
<svg xmlns="http://www.w3.org/2000/svg" xmlns:xlink="http://www.w3.org/1999/xlink" version="1.1" id="Layer_1" x="0px" y="0px" viewBox="0 0 512 512" style="enable-background:new 0 0 512 512;" xml:space="preserve" width="512px" height="512px" class=""><g><circle style="fill:#0F76BC" cx="256" cy="256" r="256" data-original="#3A99D7" class="active-path" data-old_color="#0f76bc"/><path style="fill:#0F76BC" d="M509.363,293.09L397.435,181.162L123.796,355.235l155.776,155.776  C397.6,500.132,492.549,409.304,509.363,293.09z" data-original="#2682BF" class="" data-old_color="#0f76bc"/><rect x="123.796" y="181.16" style="fill:#F7C600;" width="273.637" height="174.073" data-original="#F7C600"/><path style="fill:#FFD630;" d="M123.797,181.162h273.639l-136.82-84.235L123.797,181.162z" data-original="#FFD630"/><path style="fill:#FFFFFF;" d="M162.865,149.841h195.667c10.221,0,18.462,8.242,18.462,18.462v186.931H144.401V168.304  C144.401,158.084,152.644,149.841,162.865,149.841z" data-original="#FFFFFF"/><path style="fill:#FFD630;" d="M123.797,181.162l133.851,87.037l-133.851,87.037L123.797,181.162L123.797,181.162z" data-original="#FFD630"/><path style="fill:#F5BE18;" d="M123.797,355.235h273.639l-136.819-87.202L123.797,355.235z" data-original="#F5BE18"/><path style="fill:#FFD630;" d="M397.435,181.162l-133.852,87.037l133.852,87.037V181.162z" data-original="#FFD630"/><path style="fill:#999999" d="M194.514,172.095h132.368v10.879H194.514V172.095z M194.514,210.009h132.368v10.879H194.514V210.009z   M194.514,191.052h132.368v10.879H194.514V191.052z" data-original="#999999" class=""/></g> </svg>
