<?xml version="1.0"?>
<svg xmlns="http://www.w3.org/2000/svg" xmlns:xlink="http://www.w3.org/1999/xlink" version="1.1" id="Layer_1" x="0px" y="0px" viewBox="0 0 491.52 491.52" style="enable-background:new 0 0 491.52 491.52;" xml:space="preserve" width="512px" height="512px" class=""><g><circle style="fill:#0F76BC" cx="245.76" cy="245.76" r="245.76" data-original="#E05B49" class="active-path" data-old_color="#0f76bc"/><path style="opacity:0.1;enable-background:new    ;" d="M348.877,116.04c-5.99-6.81-14.797-11.059-24.576-11.059  c-18.227,0-33.024,14.746-33.024,33.024c0,4.659,0.973,9.062,2.714,13.056h-16.435l-20.019-20.019l-2.099-2.099l-1.587-1.536v-0.051  c-12.032-11.008-28.058-17.766-45.67-17.766c-28.058,0-52.07,17.101-62.259,41.472h-32.87c-4.454,0-8.09,3.789-8.09,8.448v184.115  c0,2.253,0.87,4.25,2.253,5.786l0.717,0.717l141.305,141.305c129.928-1.808,235.496-104.38,241.968-233.131L348.928,115.989  L348.877,116.04z" data-original="#000000" class=""/><path style="fill:#64798A;" d="M386.56,159.497c0-4.67-3.627-8.457-8.102-8.457H113.062c-4.474,0-8.102,3.786-8.102,8.457v168.334  h281.6V159.497z" data-original="#64798A" class=""/><g>
	<rect x="121.027" y="167.808" style="fill:#EBF0F3;" width="249.467" height="143.252" data-original="#EBF0F3" class=""/>
	<path style="fill:#EBF0F3;" d="M104.96,327.831v15.807c0,4.671,3.628,8.457,8.102,8.457h265.395c4.475,0,8.102-3.786,8.102-8.457   v-15.807H104.96z" data-original="#EBF0F3" class=""/>
</g><ellipse style="fill:#44C4A1;" cx="345.549" cy="339.814" rx="3.789" ry="3.958" data-original="#44C4A1"/><ellipse style="fill:#E56353;" cx="364.544" cy="339.814" rx="3.789" ry="3.958" data-original="#E56353"/><rect x="205.619" y="352.102" style="fill:#E1E6E9;" width="80.328" height="20.844" data-original="#E1E6E9"/><polygon style="fill:#D5D6DB;" points="285.924,372.936 205.596,352.094 285.924,352.094 " data-original="#D5D6DB"/><polygon style="fill:#EBF0F3;" points="285.924,372.936 205.596,372.936 195.291,386.56 296.229,386.56 " data-original="#EBF0F3" class=""/><path style="fill:#E1E6E9;" d="M208.199,254.881c37.29,0,67.52-30.23,67.52-67.52c0-6.802-1.029-13.36-2.9-19.551H143.578  c-1.871,6.192-2.9,12.749-2.9,19.551C140.678,224.651,170.908,254.881,208.199,254.881z" data-original="#E1E6E9"/><path style="fill:#3A556A;" d="M350.862,167.81c3.526-4.774,5.801-10.515,6.329-16.77H291.41c0.528,6.254,2.804,11.995,6.329,16.77  H350.862z" data-original="#3A556A"/><path style="fill:#E1E6E9;" d="M324.301,181.264c10.905,0,20.546-5.307,26.562-13.454h-53.123  C303.756,175.957,313.396,181.264,324.301,181.264z" data-original="#E1E6E9"/><circle style="fill:#DC8744;" cx="208.2" cy="177.121" r="67.523" data-original="#DC8744"/><circle style="fill:#FCD462" cx="208.2" cy="177.121" r="54.989" data-original="#FCD462" class=""/><g>
	<path style="fill:#DC8744;" d="M206.152,215.726v-6.799c-8.512-0.868-16.153-4.252-22.914-10.149l6.799-8.102   c5.215,4.533,10.582,7.231,16.115,8.102v-18.07c-7.019-1.675-12.158-3.881-15.417-6.613c-3.259-2.733-4.889-6.783-4.889-12.154   c0-5.37,1.872-9.763,5.631-13.181c3.76-3.415,8.649-5.276,14.674-5.586v-4.658h5.958v4.749c6.829,0.5,13.287,2.827,19.374,6.988   l-6.056,8.569c-4.101-2.918-8.535-4.718-13.317-5.404v17.509h0.28c7.14,1.679,12.385,3.945,15.736,6.799   c3.358,2.857,5.032,7.004,5.032,12.434c0,5.435-1.925,9.861-5.775,13.272c-3.851,3.419-8.936,5.279-15.273,5.59v6.704H206.152z    M199.581,155.607c-1.584,1.395-2.373,3.135-2.373,5.215c0,2.081,0.622,3.725,1.865,4.935c1.235,1.212,3.6,2.376,7.079,3.494   v-16.114C203.355,153.387,201.165,154.209,199.581,155.607z M219.189,196.447c1.736-1.425,2.607-3.225,2.607-5.401   c0-2.171-0.682-3.896-2.046-5.169c-1.372-1.273-3.919-2.467-7.64-3.585v16.762C215.089,198.747,217.446,197.876,219.189,196.447z" data-original="#DC8744"/>
	<circle style="fill:#DC8744;" cx="324.301" cy="137.994" r="33.034" data-original="#DC8744"/>
</g><circle style="fill:#FCD462" cx="324.301" cy="137.994" r="26.9" data-original="#FCD462" class=""/><path style="fill:#DC8744;" d="M323.3,156.878v-3.326c-4.165-0.425-7.902-2.08-11.21-4.965l3.326-3.964  c2.551,2.217,5.177,3.537,7.884,3.964v-8.84c-3.434-0.819-5.948-1.898-7.542-3.235c-1.595-1.337-2.392-3.319-2.392-5.946  c0-2.627,0.916-4.776,2.755-6.449c1.84-1.67,4.231-2.58,7.179-2.733v-2.279h2.914v2.323c3.341,0.245,6.5,1.383,9.478,3.419  l-2.963,4.192c-2.006-1.428-4.175-2.309-6.515-2.644v8.566h0.137c3.493,0.821,6.059,1.93,7.698,3.326  c1.643,1.398,2.462,3.426,2.462,6.083c0,2.659-0.942,4.825-2.825,6.493c-1.884,1.672-4.372,2.583-7.472,2.735v3.28H323.3z   M320.085,127.468c-0.775,0.682-1.161,1.533-1.161,2.551c0,1.018,0.304,1.822,0.912,2.414c0.605,0.593,1.761,1.162,3.464,1.709  v-7.883C321.931,126.381,320.86,126.783,320.085,127.468z M329.678,147.447c0.849-0.697,1.275-1.578,1.275-2.642  c0-1.062-0.334-1.906-1.001-2.529c-0.671-0.623-1.917-1.207-3.738-1.754v8.2C327.671,148.572,328.825,148.146,329.678,147.447z" data-original="#DC8744"/></g> </svg>
